<?xml version="1.0" encoding="utf-8"?>
<!-- Generator: Adobe Illustrator 20.1.0, SVG Export Plug-In . SVG Version: 6.00 Build 0)  -->
<svg version="1.1" id="Calque_1" xmlns="http://www.w3.org/2000/svg" xmlns:xlink="http://www.w3.org/1999/xlink" x="0px" y="0px"
	 viewBox="0 0 30 30" style="enable-background:new 0 0 30 30;" xml:space="preserve">
<style type="text/css">
	.st0{fill:#2D2E33;}
	.st1{fill:#AF8716;}
</style>
<rect class="st0" width="30" height="30"/>
<g>
	<path class="st1" d="M25.6,4.4c0,0-0.2,0.5-0.5,1.3c-0.2,0.4-0.4,0.9-0.6,1.5c-0.1,0.3-0.3,0.6-0.4,0.9c-0.1,0.2-0.2,0.3-0.3,0.4
		c-0.1,0.1-0.3,0.2-0.4,0.4c-2,2-4.6,4.6-7.3,7.3c-2.7,2.7-5.3,5.3-7.3,7.3c-0.1,0.1-0.3,0.2-0.4,0.4C8.3,23.9,8.2,24,8,24
		c-0.3,0.1-0.6,0.3-0.9,0.4c-0.5,0.3-1,0.5-1.5,0.6c-0.8,0.3-1.3,0.5-1.3,0.5s0.2-0.5,0.5-1.3c0.2-0.4,0.4-0.9,0.6-1.5
		C5.7,22.6,5.8,22.3,6,22c0.1-0.2,0.2-0.3,0.3-0.4c0.1-0.1,0.2-0.2,0.4-0.4c2-2,4.6-4.6,7.3-7.3s5.3-5.3,7.3-7.3
		c0.1-0.1,0.3-0.2,0.4-0.4c0.1-0.1,0.2-0.3,0.4-0.3c0.3-0.1,0.6-0.3,0.9-0.4c0.5-0.3,1-0.5,1.5-0.6C25.1,4.6,25.6,4.4,25.6,4.4z"/>
</g>
<g>
	<path class="st1" d="M4.4,4.4c0,0,0.5,0.2,1.3,0.5c0.4,0.2,0.9,0.4,1.5,0.6c0.3,0.1,0.6,0.3,0.9,0.4C8.2,6,8.3,6.1,8.4,6.3
		c0.1,0.1,0.2,0.3,0.4,0.4c2,2,4.6,4.6,7.3,7.3c2.7,2.7,5.3,5.3,7.3,7.3c0.1,0.1,0.2,0.3,0.4,0.4c0.1,0.1,0.3,0.2,0.3,0.4
		c0.1,0.3,0.3,0.6,0.4,0.9c0.3,0.5,0.5,1,0.6,1.5c0.3,0.8,0.5,1.3,0.5,1.3s-0.5-0.2-1.3-0.5c-0.4-0.2-0.9-0.4-1.5-0.6
		c-0.3-0.1-0.6-0.3-0.9-0.4c-0.2-0.1-0.3-0.2-0.4-0.3c-0.1-0.1-0.2-0.2-0.4-0.4c-2-2-4.6-4.6-7.3-7.3s-5.3-5.3-7.3-7.3
		C6.5,8.6,6.4,8.5,6.3,8.4C6.1,8.3,6,8.2,5.9,8.1C5.8,7.7,5.7,7.5,5.5,7.2c-0.3-0.5-0.5-1-0.6-1.5C4.6,4.9,4.4,4.4,4.4,4.4z"/>
</g>
</svg>
