<?xml version="1.0" encoding="utf-8"?>
<!-- Generator: Adobe Illustrator 20.1.0, SVG Export Plug-In . SVG Version: 6.00 Build 0)  -->
<svg version="1.1" id="Calque_1" xmlns="http://www.w3.org/2000/svg" xmlns:xlink="http://www.w3.org/1999/xlink" x="0px" y="0px"
	 viewBox="0 0 1000 550" style="enable-background:new 0 0 1000 550;" xml:space="preserve">
<style type="text/css">
	.st0{opacity:0.8;}
	.st1{fill:#AF8716;}
	.st2{fill-rule:evenodd;clip-rule:evenodd;fill:#2D2E33;}
</style>
<path class="st0" d="M991.3,521.7H8.7c-2.5,0-4.5-2-4.5-4.5V15.9c0-2.5,2-4.5,4.5-4.5h982.6c2.5,0,4.5,2,4.5,4.5v501.4
	C995.7,519.7,993.8,521.7,991.3,521.7z"/>
<path class="st1" d="M991.3,92.7H8.7c-2.4,0-4.4-2-4.4-4.4V15.9c0-2.4,2-4.4,4.4-4.4h982.6c2.4,0,4.4,2,4.4,4.4v72.4
	C995.7,90.7,993.8,92.7,991.3,92.7z"/>
<rect x="4.3" y="18.2" class="st1" width="991.5" height="74.5"/>
<rect x="27" y="202.4" class="st1" width="293.5" height="199.6"/>
<polygon class="st2" points="91.5,18.2 123.7,36.8 156,55.4 156,92.7 156,129.9 123.7,148.6 91.5,167.2 59.2,148.6 27,129.9 
	27,92.7 27,55.4 59.2,36.8 "/>
<g>
	<path class="st1" d="M124.3,112.9c-2-0.1-4-0.2-6-0.3c-2-0.1-3.9-0.1-6-0.1c-1.5,0-3,0-4.6,0c-1.6,0-3.1,0.1-4.6,0.1
		c-0.2,0-0.3-0.1-0.3-0.3c0-0.2,0-0.3,0.2-0.4c0.3-0.1,0.6-0.2,0.9-0.3c0.3-0.1,0.6-0.1,0.9-0.1c0.7,0,1.4-0.3,1.9-0.9
		c0.5-0.6,0.9-1.3,1.3-2.2c0.3-0.9,0.5-1.7,0.6-2.6c0.1-0.9,0.2-1.7,0.2-2.3V79.1H72.6v24.7c0,2.6,0.6,4.6,1.9,6
		c1.3,1.3,3.2,2.1,5.7,2.3c0.2,0,0.3,0.1,0.3,0.3c0,0.2-0.1,0.3-0.3,0.3c-1.2,0-2.3,0-3.5,0c-1.2,0-2.4,0-3.6,0.1c-0.9,0-1.9,0-3,0
		c-1.1,0-2.1,0-3,0c-1,0-2,0-2.9,0c-1,0-2,0-3-0.1c-0.3,0-0.6,0-1.1,0c-0.4,0-0.8,0-1.1,0c-0.2,0-0.3-0.1-0.3-0.3
		c0-0.2,0-0.3,0.2-0.4c1.3-0.2,2.4-0.5,3.2-0.8c0.8-0.3,1.4-0.7,1.8-1.2c0.4-0.5,0.7-1.1,0.8-1.9c0.1-0.8,0.2-1.9,0.2-3.2V55.1
		c0-1.8-0.7-3.1-2.1-4c-1.4-0.9-2.9-1.4-4.5-1.4V49c1.8,0.1,3.5,0.2,5.3,0.3c1.7,0.1,3.5,0.1,5.2,0.1c1.3,0,2.6,0,4,0
		c1.3,0,2.6-0.1,4-0.1c0.3,0,0.6,0,1,0c0.3,0,0.7,0,1,0c0.2,0,0.3,0.1,0.3,0.3c0,0.2-0.1,0.3-0.3,0.3c-1.6,0.1-2.9,0.5-4.1,1.4
		c-1.2,0.9-1.7,2.1-1.7,3.8v20.5h36.2v-20c0-1-0.1-1.8-0.4-2.3c-0.3-0.6-0.6-1-1.1-1.4c-0.5-0.3-1.1-0.6-1.7-0.8
		c-0.6-0.2-1.3-0.4-2-0.6l-1.7-0.5c-0.2-0.1-0.2-0.2-0.2-0.4c0-0.2,0.1-0.3,0.3-0.3c1.8,0.1,3.7,0.2,5.6,0.3s3.8,0.1,5.6,0.1
		c3,0,6-0.1,9.2-0.3c0.2,0,0.3,0.1,0.3,0.3c0,0.2,0,0.3-0.2,0.4c-1.7,0.3-3.1,0.8-4.2,1.4c-1.1,0.6-1.6,1.9-1.6,3.9v47.9
		c0,2.8,0.6,4.8,1.8,6.1c1.2,1.3,3.2,2.2,5.9,2.7L124.3,112.9z"/>
	<path class="st1" d="M128.2,120c0,0.3-0.1,0.5-0.1,0.8c-0.1,2.1-0.4,4.2-0.7,6.3c-0.3,2.1-0.9,4.1-1.8,6c0.1,0.1,0.1,0.2,0.1,0.4
		c-0.1,0.2-0.3,0.4-0.3,0.5c-0.1,0.1-0.3,0.2-0.4,0.2c-7.4-0.7-14.9-1-22.2-1c-6.1,0-12.1,0.1-18.1,0.3c-0.9,0.1-2,0.1-3.2,0.1
		c-1.1,0-2.1,0-3,0.1c-0.2,0-0.3-0.1-0.3-0.4c0-0.3,0.1-0.4,0.3-0.4c1.1-0.1,2.1-0.5,3-1.2c0.9-0.7,1.7-1.6,2.3-2.6
		c0.6-1,1.1-2.1,1.4-3.3c0.3-1.2,0.5-2.3,0.5-3.3V62.1c0-2.5-0.8-4.4-2.5-5.9c-1.6-1.4-3.6-2.2-6-2.2v-0.9c4.5,0.2,9,0.3,13.7,0.3
		c2.2,0,4.4-0.1,6.5-0.2c2.2-0.1,4.3-0.3,6.4-0.4c0.2,0,0.3,0.1,0.4,0.4c0,0.3-0.1,0.4-0.3,0.5c-2.1,0.4-4,1.3-5.7,2.7
		c-1.7,1.4-2.6,3.3-2.6,5.6v55.3c0,2,0.4,3.9,1.1,5.5c0.7,1.6,1.7,3,3,4.1c1.2,1.1,2.7,1.9,4.4,2.5c1.7,0.6,3.5,0.9,5.5,0.9
		c3.8,0,7.3-1.1,10.5-3.2c3.2-2.1,5.6-4.9,7.3-8.3l0.9,0.3C128.3,119.4,128.3,119.7,128.2,120z"/>
</g>
<g>
	<path class="st1" d="M965.8,37.3c0,0-0.3,0.6-0.8,1.7c-0.3,0.5-0.6,1.1-1,1.8c-0.2,0.3-0.4,0.7-0.6,1.1c-0.1,0.2-0.3,0.4-0.5,0.5
		c-0.2,0.1-0.3,0.3-0.5,0.5c-2.7,2.7-6.3,6.3-10,10c-3.6,3.6-7.2,7.2-10,10c-0.2,0.2-0.3,0.3-0.5,0.5c-0.1,0.2-0.3,0.3-0.5,0.4
		c-0.4,0.2-0.8,0.4-1.1,0.6c-0.7,0.4-1.3,0.7-1.8,1c-1,0.6-1.6,0.8-1.6,0.8s0.3-0.6,0.8-1.6c0.3-0.5,0.6-1.1,1-1.8
		c0.2-0.3,0.4-0.7,0.6-1.1c0.1-0.2,0.3-0.4,0.4-0.5c0.2-0.1,0.3-0.3,0.5-0.5c2.7-2.7,6.3-6.3,10-10c3.6-3.6,7.2-7.2,10-10
		c0.2-0.2,0.3-0.3,0.5-0.5c0.1-0.2,0.3-0.3,0.5-0.5c0.4-0.2,0.8-0.4,1.1-0.6c0.7-0.4,1.3-0.7,1.8-1
		C965.2,37.5,965.8,37.3,965.8,37.3z"/>
</g>
<g>
	<path class="st1" d="M936.8,37.3c0,0,0.6,0.3,1.7,0.8c0.5,0.3,1.1,0.6,1.8,1c0.3,0.2,0.7,0.4,1.1,0.6c0.2,0.1,0.4,0.3,0.5,0.5
		c0.1,0.2,0.3,0.3,0.5,0.5c2.7,2.7,6.3,6.3,10,10c3.6,3.6,7.2,7.2,10,10c0.2,0.2,0.3,0.3,0.5,0.5c0.2,0.1,0.3,0.3,0.4,0.5
		c0.2,0.4,0.4,0.8,0.6,1.1c0.4,0.7,0.7,1.3,1,1.8c0.6,1,0.8,1.6,0.8,1.6s-0.6-0.3-1.6-0.8c-0.5-0.3-1.1-0.6-1.8-1
		c-0.3-0.2-0.7-0.4-1.1-0.6c-0.2-0.1-0.4-0.3-0.5-0.4c-0.1-0.2-0.3-0.3-0.5-0.5c-2.7-2.7-6.3-6.3-10-10c-3.6-3.6-7.2-7.2-10-10
		c-0.2-0.2-0.3-0.3-0.5-0.5c-0.2-0.1-0.3-0.3-0.5-0.5c-0.2-0.4-0.4-0.8-0.6-1.1c-0.4-0.7-0.7-1.3-1-1.8
		C937.1,37.9,936.8,37.3,936.8,37.3z"/>
</g>
</svg>
