<?xml version="1.0" encoding="utf-8"?>
<!-- Generator: Adobe Illustrator 20.1.0, SVG Export Plug-In . SVG Version: 6.00 Build 0)  -->
<svg version="1.1" id="Calque_1" xmlns="http://www.w3.org/2000/svg" xmlns:xlink="http://www.w3.org/1999/xlink" x="0px" y="0px"
	 viewBox="0 0 250 450" style="enable-background:new 0 0 250 450;" xml:space="preserve">
<style type="text/css">
	.st0{fill-rule:evenodd;clip-rule:evenodd;fill:#AF8716;}
	.st1{fill:#E5B130;}
	.st2{fill-rule:evenodd;clip-rule:evenodd;fill:#2D2E33;}
	.st3{fill:#AF8716;}
</style>
<polygon class="st0" points="125.3,8.9 186.4,44.2 247.4,79.4 247.4,149.9 247.4,220.3 186.4,255.6 125.3,290.8 64.3,255.6 
	3.3,220.3 3.3,149.9 3.3,79.4 64.3,44.2 "/>
<polygon class="st1" points="125.3,441.1 247.4,220.3 125.4,290.8 "/>
<polygon class="st2" points="125.3,19.2 180.5,51 235.7,82.9 235.7,146.6 235.7,210.3 180.5,242.2 125.3,274.1 70.2,242.2 15,210.3 
	15,146.6 15,82.9 70.2,51 "/>
<g>
	<path class="st3" d="M181.5,182.9c-3.4-0.2-6.8-0.3-10.2-0.4c-3.4-0.1-6.7-0.1-10.2-0.1c-2.6,0-5.2,0-7.8,0.1
		c-2.7,0.1-5.3,0.1-7.8,0.2c-0.3,0-0.5-0.2-0.5-0.5c-0.1-0.3,0.1-0.6,0.4-0.7c0.5-0.2,1-0.3,1.5-0.4c0.5-0.1,1-0.1,1.5-0.1
		c1.3,0,2.4-0.5,3.3-1.6c0.9-1,1.6-2.3,2.1-3.8c0.5-1.5,0.9-3,1.1-4.5c0.2-1.5,0.3-2.8,0.3-3.9v-42H93v42.3c0,4.5,1.1,7.9,3.3,10.2
		c2.2,2.3,5.5,3.6,9.8,4c0.3,0,0.4,0.2,0.4,0.6c0,0.4-0.1,0.6-0.4,0.6c-2,0-4,0-6.1,0c-2.1,0-4.1,0.1-6.2,0.1c-1.5,0-3.2,0-5.1,0.1
		c-1.9,0.1-3.6,0.1-5.1,0.1c-1.7,0-3.4,0-5,0c-1.7,0-3.4,0-5.2-0.1c-0.5,0-1.1,0-1.8-0.1c-0.7,0-1.4-0.1-1.8-0.1
		c-0.3,0-0.5-0.2-0.5-0.5c-0.1-0.3,0.1-0.6,0.4-0.7c2.3-0.4,4.1-0.9,5.4-1.4c1.3-0.5,2.3-1.2,3-2.1c0.7-0.8,1.1-1.9,1.3-3.3
		c0.2-1.4,0.3-3.2,0.3-5.5V84.2c0-3.1-1.2-5.3-3.6-6.9c-2.4-1.5-5-2.3-7.8-2.4v-1.2c3.1,0.2,6.1,0.4,9,0.5s5.9,0.2,8.9,0.2
		c2.3,0,4.5,0,6.8-0.1c2.3,0,4.5-0.1,6.8-0.2c0.5,0,1,0,1.6-0.1c0.6,0,1.1-0.1,1.6-0.1c0.3,0,0.4,0.2,0.4,0.6c0,0.4-0.1,0.6-0.4,0.6
		c-2.7,0.1-5,0.9-6.9,2.4c-2,1.5-3,3.7-3,6.4v35h61.9V84.8c0-1.7-0.2-3-0.7-4c-0.4-1-1.1-1.8-1.9-2.4c-0.8-0.6-1.8-1-2.9-1.3
		c-1.1-0.3-2.2-0.6-3.4-1l-3-0.9c-0.3-0.1-0.4-0.3-0.4-0.7c0-0.3,0.2-0.5,0.5-0.5c3.2,0.2,6.4,0.4,9.6,0.5c3.3,0.1,6.5,0.2,9.6,0.2
		c5.1,0,10.3-0.1,15.7-0.4c0.3,0,0.5,0.2,0.5,0.5c0,0.3-0.1,0.6-0.4,0.7c-3,0.6-5.3,1.4-7.2,2.4c-1.8,1-2.7,3.3-2.7,6.7v82
		c0,4.7,1,8.2,3.1,10.5c2.1,2.3,5.4,3.8,10,4.6L181.5,182.9z"/>
	<path class="st3" d="M188.2,195.1c-0.1,0.4-0.1,0.9-0.1,1.4c-0.3,3.6-0.6,7.2-1.1,10.8c-0.5,3.6-1.5,7-3,10.2
		c0.1,0.1,0.2,0.4,0.2,0.7c-0.3,0.4-0.4,0.7-0.6,0.9c-0.3,0.3-0.5,0.4-0.7,0.4c-12.7-1.1-25.4-1.7-38-1.7c-10.4,0-20.7,0.2-30.9,0.6
		c-1.6,0.1-3.4,0.2-5.4,0.2c-1.9,0-3.6,0.1-5.1,0.2c-0.4,0-0.6-0.2-0.6-0.7c0-0.5,0.2-0.7,0.6-0.7c1.9-0.1,3.6-0.8,5.1-2.1
		c1.6-1.2,2.9-2.7,3.9-4.5c1.1-1.7,1.9-3.7,2.4-5.7c0.6-2.1,0.8-4,0.8-5.7V96.1c0-4.2-1.4-7.6-4.2-10c-2.8-2.4-6.2-3.7-10.2-3.8
		v-1.5c7.6,0.4,15.4,0.6,23.4,0.6c3.7,0,7.5-0.1,11.1-0.4c3.7-0.2,7.3-0.5,11-0.7c0.4,0,0.6,0.2,0.7,0.7c0.1,0.4-0.1,0.7-0.5,0.8
		c-3.6,0.6-6.9,2.2-9.8,4.6c-2.9,2.4-4.4,5.7-4.4,9.6v94.6c0,3.5,0.6,6.6,1.9,9.4c1.2,2.7,2.9,5.1,5.1,6.9c2.1,1.9,4.6,3.3,7.5,4.3
		c2.9,1,6,1.5,9.4,1.5c6.5,0,12.5-1.8,17.9-5.4c5.4-3.6,9.6-8.4,12.5-14.2l1.5,0.6C188.4,194.1,188.3,194.6,188.2,195.1z"/>
</g>
<polygon class="st3" points="3.3,220.3 125.3,290.8 125.4,440.9 "/>
</svg>
